<svg width="17" height="17" viewBox="0 0 17 17" fill="none" xmlns="http://www.w3.org/2000/svg">
<path fill-rule="evenodd" clip-rule="evenodd" d="M12 7C12 9.76142 9.76142 12 7 12C4.23858 12 2 9.76142 2 7C2 4.23858 4.23858 2 7 2C9.76142 2 12 4.23858 12 7ZM11.4863 12.3736C10.2715 13.3889 8.7071 14 7 14C3.13401 14 0 10.866 0 7C0 3.13401 3.13401 0 7 0C10.866 0 14 3.13401 14 7C14 8.50723 13.5236 9.90319 12.7133 11.0456C12.8625 11.0922 13.003 11.1746 13.1213 11.2929L16.7071 14.8787C17.0976 15.2692 17.0976 15.9024 16.7071 16.2929C16.3166 16.6834 15.6834 16.6834 15.2929 16.2929L11.7071 12.7071C11.6087 12.6087 11.5351 12.495 11.4863 12.3736Z" fill="#4F4F4F"/>
</svg>
